<svg xmlns="http://www.w3.org/2000/svg" viewBox="0 0 512 512" fill="none">
<defs><filter id="s" x="-30%" y="-30%" width="160%" height="160%"><feDropShadow dx="0" dy="18" stdDeviation="18" flood-color="#105258" flood-opacity=".16"/></filter></defs>
<g filter="url(#s)">
<path d="M93 142h326v260H93z" fill="#F7FBFA" stroke="#105258" stroke-width="12" stroke-linejoin="round"/>
<path d="M93 244h326M201 142v260M312 142v260" stroke="#B8D9D6" stroke-width="7"/>
<path d="m120 355 68-65 54 32 72-87 80 74" stroke="#105258" stroke-width="13" stroke-linecap="round" stroke-linejoin="round"/>
<path d="M369 91c0-32-26-58-58-58s-58 26-58 58c0 43 58 98 58 98s58-55 58-98Z" fill="#105258"/>
<circle cx="311" cy="91" r="18" fill="#fff"/>
<path d="M126 203 162 172l36 31v35h-72zM337 204l36-31 36 31v35h-72z" fill="#D9F0ED" stroke="#1C2129" stroke-width="9"/>
</g></svg>